<?xml version="1.0" encoding="utf-8"?>
<!-- Generator: Adobe Illustrator 22.0.1, SVG Export Plug-In . SVG Version: 6.00 Build 0)  -->
<svg version="1.1" id="Calque_1" xmlns="http://www.w3.org/2000/svg" xmlns:xlink="http://www.w3.org/1999/xlink" x="0px" y="0px"
	 viewBox="0 0 184.8 60.6" style="enable-background:new 0 0 184.8 60.6;" xml:space="preserve">
<style type="text/css">
	.st0{fill:#F190BB;}
	.st1{fill:#F9EB4E;}
	.st2{fill:#53C3ED;}
</style>
<g>
	<rect y="31.3" class="st0" width="98" height="18.9"/>
	<rect x="96.9" y="7.9" transform="matrix(0.988 0.1542 -0.1542 0.988 2.8261 -15.0679)" class="st0" width="3.2" height="5.5"/>
	
		<rect x="112.7" y="15.6" transform="matrix(0.9543 -0.2988 0.2988 0.9543 -0.2601 35.0057)" class="st1" width="3.2" height="5.5"/>
	
		<rect x="137.3" y="38" transform="matrix(-0.7874 0.6165 -0.6165 -0.7874 273.519 -12.7694)" class="st2" width="3.2" height="5.5"/>
	
		<rect x="120" y="33.3" transform="matrix(-0.4334 0.9012 -0.9012 -0.4334 206.8525 -58.0051)" class="st1" width="3.2" height="5.5"/>
	
		<rect x="153.7" y="13.8" transform="matrix(-0.9543 0.2988 -0.2988 -0.9543 308.5678 -14.1219)" class="st1" width="3.2" height="5.5"/>
	<rect x="120.9" y="28.7" transform="matrix(0.5567 -0.8307 0.8307 0.5567 28.17 115.7364)" class="st0" width="3.2" height="5.5"/>
	
		<rect x="130.8" y="0.6" transform="matrix(0.1318 -0.9913 0.9913 0.1318 111.7203 134.188)" class="st1" width="3.2" height="5.5"/>
	
		<rect x="153.6" y="54.7" transform="matrix(-0.9149 -0.4036 0.4036 -0.9149 274.1067 172.7227)" class="st0" width="3.2" height="5.5"/>
	
		<rect x="146.5" y="0.4" transform="matrix(-0.9149 -0.4036 0.4036 -0.9149 282.3606 65.8336)" class="st0" width="3.2" height="5.5"/>
	
		<rect x="167.8" y="41.4" transform="matrix(-0.9991 4.279426e-02 -4.279426e-02 -0.9991 340.6735 81.0325)" class="st1" width="3.2" height="5.5"/>
	<rect x="136.1" y="16.9" transform="matrix(0.9196 -0.3928 0.3928 0.9196 3.3724 55.6751)" class="st2" width="3.2" height="5.5"/>
	<rect x="164.8" y="2.6" transform="matrix(0.651 -0.7591 0.7591 0.651 54.0229 128.1755)" class="st2" width="3.2" height="5.5"/>
	
		<rect x="104.5" y="29.2" transform="matrix(0.9925 -0.1219 0.1219 0.9925 -3.1039 13.1717)" class="st2" width="3.2" height="5.5"/>
	
		<rect x="166.8" y="25.1" transform="matrix(-0.752 0.6592 -0.6592 -0.752 313.3913 -62.2013)" class="st0" width="3.2" height="5.5"/>
	
		<rect x="142.3" y="30.4" transform="matrix(-0.8773 0.4799 -0.4799 -0.8773 286.1929 -6.8334)" class="st1" width="3.2" height="5.5"/>
	
		<rect x="156.6" y="31.5" transform="matrix(-0.9772 0.2121 -0.2121 -0.9772 320.0607 34.241)" class="st2" width="3.2" height="5.5"/>
	<rect x="110.7" y="31" class="st1" width="74.2" height="18.9"/>
	<g>
		<path d="M7.2,40.8H5.1V19.9h4.5c3.7,0,5.8,2,5.8,5.5c0,3.9-2.2,6.1-5.1,6.1H7.2V40.8z M7.2,29.6l2.9,0c1.9,0,3.1-1.5,3.1-4.1
			c0-2.6-1.3-3.7-3.6-3.7H7.2V29.6z"/>
		<path d="M25.9,32.4l-2.1,8.7l-2.1-0.6L27,19.9h2.5l5.3,20.8l-2.1,0.6l-2.1-8.7H25.9z M28.3,22.7L28.3,22.7l-1.9,7.9h3.8L28.3,22.7
			z"/>
		<path d="M42.7,19.9h5.6c2.1,0,4.7,1.8,4.7,5.5c0,2.6-1,5-3.6,5.9l4.3,9l-1.9,0.9l-4.7-9.7h-2.4v9.3h-2.1V19.9z M44.8,29.6h3.1
			c1.8,0,2.9-1.3,2.9-4.2c0-2.7-1.3-3.7-3.4-3.7h-2.6V29.6z"/>
		<path d="M64.9,21.7h-4.5v-1.9h11v1.9H67v19h-2.1V21.7z"/>
		<path d="M89.2,19.5l1.9,0.8l-5.4,12.3v8.2h-2.1v-8.2l-5.4-12.3l1.9-0.8l4.5,10.6L89.2,19.5z"/>
	</g>
	<g>
		<path d="M116,19.8h2.1v19h8.6v1.9H116V19.8z"/>
		<path d="M137.8,21.7H135v-1.9h7.8v1.9h-2.9v17.2h2.9v1.9H135v-1.9h2.8V21.7z"/>
		<path d="M160.7,24.6c-0.3-1.5-1.1-3.1-2.9-3.1c-2,0-2.8,1.6-2.8,3.4c0,1.7,0.3,2.2,3.6,4.2c2.6,1.5,4.3,2.8,4.3,6.1
			c0,3.3-1.8,5.9-5.3,5.9c-3.7,0-5-2.4-5.4-5.8l2.1-0.3c0.3,2.3,0.8,4.1,3.3,4.1c1.8,0,3.1-1.2,3.1-3.7c0-2.8-1.8-3.7-4-5
			c-2.4-1.4-4-2.4-4-5.5c0-2.8,1.9-5.3,4.9-5.3c2.9,0,4.4,2.1,4.9,4.7L160.7,24.6z"/>
		<path d="M175.5,21.7H171v-1.9h11v1.9h-4.4v19h-2.1V21.7z"/>
	</g>
</g>
</svg>
