<?xml version="1.0" encoding="utf-8"?>
<!-- Generator: Adobe Illustrator 22.0.1, SVG Export Plug-In . SVG Version: 6.00 Build 0)  -->
<svg version="1.1" id="Calque_1" xmlns="http://www.w3.org/2000/svg" xmlns:xlink="http://www.w3.org/1999/xlink" x="0px" y="0px"
	 viewBox="0 0 103.3 53.8" style="enable-background:new 0 0 103.3 53.8;" xml:space="preserve">
<style type="text/css">
	.st0{fill:#F8EA4E;}
	.st1{fill:#F08FBA;}
	.st2{fill:#53C2EC;}
</style>
<path class="st0" d="M-827.4,154.6c2.3,4,5.2,7.3,8.6,10l17.7-16.8c-2.4-0.8-4.5-2.5-5.8-4.9c-3-5.2-1.1-11.9,4.1-14.8
	c5.2-3,11.9-1.1,14.8,4.1c0.4,0.8,0.8,1.6,1,2.4l17.6-16.7c-2.6-3.8-5.9-6.9-9.6-9.2l-52.6,33.3C-831,146.3-829.6,150.6-827.4,154.6
	z"/>
<path class="st1" d="M-792,147c-2.8,1.6-6.1,1.8-9,0.8l-17.7,16.8c10.7,8.4,25.8,10,38.3,2.9c16.5-9.4,22.2-30.4,12.8-46.9
	c-0.5-0.9-1.1-1.8-1.7-2.7l-17.6,16.7C-785.6,139.3-787.6,144.5-792,147z"/>
<path class="st2" d="M-814.5,107.8c-12.4,7.1-18.8,20.8-17.1,34.2l52.6-33.3C-789.4,102-803.1,101.2-814.5,107.8z"/>
<path class="st0" d="M-788.9,132.7c-2.7-4.7-8.7-6.3-13.3-3.7c-4.7,2.7-6.3,8.7-3.7,13.3c1.3,2.3,3.4,3.9,5.8,4.6l2.3-2.1
	c-2.4-0.1-4.6-1.4-5.9-3.6c-2-3.5-0.8-7.9,2.7-9.9c3.5-2,7.9-0.8,9.9,2.7c0.7,1.1,1,2.4,0.9,3.6l2.4-2.2
	C-788.1,134.5-788.4,133.6-788.9,132.7z"/>
<path class="st1" d="M-793.9,143.9c-1.3,0.7-2.6,1-4,0.9l-2.3,2.1c2.4,0.7,5.2,0.5,7.5-0.9c3.8-2.2,5.6-6.6,4.7-10.7l-2.4,2.2
	C-790.3,140.1-791.6,142.6-793.9,143.9z"/>
<g>
	<polygon points="0,29.6 1.5,16.6 63.6,23.6 60.4,36.4 	"/>
	<polygon points="40.2,14.8 40.8,0 101.6,1.6 103.3,14.8 	"/>
	<polygon points="43.6,53.7 38.3,40.7 100.8,40.7 101.9,53.8 	"/>
	<polygon points="35.6,14.3 34.8,9.5 32.3,10.7 	"/>
	<polygon points="32.3,16.1 24.9,13.4 26.6,9.7 	"/>
	<polygon points="37.7,37 30.9,36.9 31.8,40.6 	"/>
</g>
</svg>
