<?xml version="1.0" encoding="utf-8"?>
<!-- Generator: Adobe Illustrator 22.0.1, SVG Export Plug-In . SVG Version: 6.00 Build 0)  -->
<svg version="1.1" id="Calque_1" xmlns="http://www.w3.org/2000/svg" xmlns:xlink="http://www.w3.org/1999/xlink" x="0px" y="0px"
	 viewBox="0 0 45.3 64.2" style="enable-background:new 0 0 45.3 64.2;" xml:space="preserve">
<style type="text/css">
	.st0{fill:#F8EA4E;}
	.st1{fill:#F08FBA;}
	.st2{fill:#53C2EC;}
</style>
<path class="st0" d="M-694.1-95c2.3,4,5.2,7.3,8.6,10l17.7-16.8c-2.4-0.8-4.5-2.5-5.8-4.9c-3-5.2-1.1-11.9,4.1-14.8
	s11.9-1.1,14.8,4.1c0.4,0.8,0.8,1.6,1,2.4l17.6-16.7c-2.6-3.8-5.9-6.9-9.6-9.2l-52.6,33.3C-697.7-103.3-696.3-99-694.1-95z"/>
<path class="st1" d="M-658.8-102.6c-2.8,1.6-6.1,1.8-9,0.8L-685.5-85c10.7,8.4,25.8,10,38.3,2.9c16.5-9.4,22.2-30.4,12.8-46.9
	c-0.5-0.9-1.1-1.8-1.7-2.7l-17.6,16.7C-652.3-110.4-654.3-105.1-658.8-102.6z"/>
<path class="st2" d="M-681.2-141.9c-12.4,7.1-18.8,20.8-17.1,34.2l52.6-33.3C-656.1-147.6-669.8-148.4-681.2-141.9z"/>
<path class="st0" d="M-655.6-116.9c-2.7-4.7-8.7-6.3-13.3-3.7c-4.7,2.7-6.3,8.7-3.7,13.3c1.3,2.3,3.4,3.9,5.8,4.6l2.3-2.1
	c-2.4-0.1-4.6-1.4-5.9-3.6c-2-3.5-0.8-7.9,2.7-9.9s7.9-0.8,9.9,2.7c0.7,1.1,1,2.4,0.9,3.6l2.4-2.2
	C-654.8-115.1-655.1-116-655.6-116.9z"/>
<path class="st1" d="M-660.6-105.7c-1.3,0.7-2.6,1-4,0.9l-2.3,2.1c2.4,0.7,5.2,0.5,7.5-0.9c3.8-2.2,5.6-6.6,4.7-10.7l-2.4,2.2
	C-657-109.5-658.3-107.1-660.6-105.7z"/>
<g>
	<polygon points="26.4,27.1 11.4,18.2 18.1,15.6 12.3,3.8 23.5,0 25.7,13.7 31.8,11.3 	"/>
	<path d="M15.4,53.2c-0.1-0.1-0.2-0.1-0.3-0.2c-1-0.5-2.1-0.1-2.6,0.9c-0.2,0.5-0.3,1-0.1,1.5c0.2,0.5,0.5,0.9,1,1.1
		c1,0.5,2.1,0.1,2.6-0.9C16.4,54.8,16.2,53.8,15.4,53.2z"/>
	<g>
		<path d="M31.6,16.1L31,17.8l11.9,5.8L26.5,57.2L4.7,46.6l11.7-23.9l-1.7-1L0,51.9l25.1,12.3l20.2-41.4L31.6,16.1z M16.4,55.8
			c-0.6,1.2-2,1.7-3.2,1.1c-0.1-0.1-0.3-0.1-0.4-0.3c-0.4-0.3-0.7-0.7-0.8-1.1c-0.2-0.6-0.2-1.3,0.1-1.9c0.3-0.6,0.8-1,1.4-1.2
			s1.3-0.2,1.9,0.1C16.5,53.2,17,54.6,16.4,55.8z"/>
	</g>
	<g>
		<polygon class="st0" points="30.7,18.6 27.7,27.5 27.1,29.2 25.7,28.3 17.1,23.2 5.9,46.2 26.1,56.1 41.7,24 		"/>
	</g>
</g>
</svg>
