<?xml version="1.0" encoding="utf-8"?>
<!-- Generator: Adobe Illustrator 22.0.1, SVG Export Plug-In . SVG Version: 6.00 Build 0)  -->
<svg version="1.1" id="Calque_1" xmlns="http://www.w3.org/2000/svg" xmlns:xlink="http://www.w3.org/1999/xlink" x="0px" y="0px"
	 viewBox="0 0 104.5 89.6" style="enable-background:new 0 0 104.5 89.6;" xml:space="preserve">
<style type="text/css">
	.st0{fill:#F8EA4E;}
	.st1{fill:#F08FBA;}
	.st2{fill:#53C2EC;}
	.st3{fill:#FFFFFF;}
</style>
<path class="st0" d="M-1050,92.1c2.3,4,5.2,7.3,8.6,10l17.7-16.8c-2.4-0.8-4.5-2.5-5.8-4.9c-3-5.2-1.1-11.9,4.1-14.8
	c5.2-3,11.9-1.1,14.8,4.1c0.4,0.8,0.8,1.6,1,2.4l17.6-16.7c-2.6-3.8-5.9-6.9-9.6-9.2l-52.6,33.3C-1053.7,83.8-1052.3,88.1-1050,92.1
	z"/>
<path class="st1" d="M-1014.7,84.5c-2.8,1.6-6.1,1.8-9,0.8l-17.7,16.8c10.7,8.4,25.8,10,38.3,2.9c16.5-9.4,22.2-30.4,12.8-46.9
	c-0.5-0.9-1.1-1.8-1.7-2.7l-17.6,16.7C-1008.3,76.8-1010.3,82-1014.7,84.5z"/>
<path class="st2" d="M-1037.2,45.2c-12.4,7.1-18.8,20.8-17.1,34.2l52.6-33.3C-1012.1,39.5-1025.7,38.7-1037.2,45.2z"/>
<path class="st0" d="M-1011.6,70.2c-2.7-4.7-8.7-6.3-13.3-3.7c-4.7,2.7-6.3,8.7-3.7,13.3c1.3,2.3,3.4,3.9,5.8,4.6l2.3-2.1
	c-2.4-0.1-4.6-1.4-5.9-3.6c-2-3.5-0.8-7.9,2.7-9.9c3.5-2,7.9-0.8,9.9,2.7c0.7,1.1,1,2.4,0.9,3.6l2.4-2.2
	C-1010.8,72-1011.1,71.1-1011.6,70.2z"/>
<path class="st1" d="M-1016.6,81.4c-1.3,0.7-2.6,1-4,0.9l-2.3,2.1c2.4,0.7,5.2,0.5,7.5-0.9c3.8-2.2,5.6-6.6,4.7-10.7l-2.4,2.2
	C-1013,77.6-1014.3,80.1-1016.6,81.4z"/>
<g>
	
		<rect x="38.2" y="34.8" transform="matrix(-0.6783 -0.7348 0.7348 -0.6783 39.3025 92.2302)" class="st0" width="3.2" height="5.5"/>
	<rect x="40.4" y="8.4" transform="matrix(0.9524 -0.3049 0.3049 0.9524 -1.4041 13.3325)" class="st0" width="3.2" height="5.5"/>
	<polyline class="st3" points="5.6,56.5 0.1,56.6 0,53.4 5.5,53.2 	"/>
	
		<rect x="47.2" y="22.5" transform="matrix(-2.652731e-02 -0.9996 0.9996 -2.652731e-02 24.883 74.7218)" class="st3" width="3.2" height="5.5"/>
	
		<rect x="19.3" y="59.3" transform="matrix(-0.466 -0.8848 0.8848 -0.466 -24.2962 109.5013)" class="st0" width="3.2" height="5.5"/>
	
		<rect x="27.9" y="20.2" transform="matrix(0.7484 0.6633 -0.6633 0.7484 22.6115 -13.8248)" class="st2" width="3.2" height="5.5"/>
	<rect x="53.1" y="40" transform="matrix(0.9646 0.2638 -0.2638 0.9646 13.1989 -12.9089)" class="st2" width="3.2" height="5.5"/>
	
		<rect x="33.6" y="51.4" transform="matrix(-0.9175 -0.3977 0.3977 -0.9175 45.9124 117.8035)" class="st3" width="3.2" height="5.5"/>
	<rect x="18.3" y="31.6" transform="matrix(-0.809 -0.5878 0.5878 -0.809 15.8828 73.8148)" class="st0" width="3.2" height="5.5"/>
	<rect x="23.4" y="44.9" transform="matrix(-0.6097 -0.7926 0.7926 -0.6097 2.459 96.5436)" class="st2" width="3.2" height="5.5"/>
	<rect x="51" y="59.5" transform="matrix(0.2832 0.9591 -0.9591 0.2832 97.3789 -5.9048)" class="st0" width="3.2" height="5.5"/>
	<rect x="39.6" y="70.4" transform="matrix(0.6783 0.7348 -0.7348 0.6783 67.0177 -6.7304)" class="st2" width="3.2" height="5.5"/>
	
		<rect x="17.5" y="84.1" transform="matrix(-1 -6.310368e-03 6.310368e-03 -1 37.6837 173.8127)" class="st0" width="3.2" height="5.5"/>
	<rect x="31.2" y="83.4" transform="matrix(0.989 0.1479 -0.1479 0.989 13.1058 -3.9084)" class="st3" width="3.2" height="5.5"/>
	
		<rect x="60.9" y="80.4" transform="matrix(0.9524 -0.3049 0.3049 0.9524 -22.3572 23.0197)" class="st0" width="3.2" height="5.5"/>
	<polyline class="st2" points="6.4,73.7 11.1,70.8 12.8,73.5 8.2,76.5 6.4,73.7 	"/>
	<rect x="61.8" y="14.8" transform="matrix(-0.894 -0.448 0.448 -0.894 112.2043 61.6905)" class="st2" width="3.2" height="5.5"/>
	
		<rect x="52.4" y="0.2" transform="matrix(-1 -6.310368e-03 6.310368e-03 -1 107.933 6.1248)" class="st0" width="3.2" height="5.5"/>
	<polyline class="st0" points="104.5,17.1 100.5,20.8 98.3,18.4 102.3,14.7 104.5,17.1 	"/>
	
		<rect x="62.7" y="32.4" transform="matrix(-2.652731e-02 -0.9996 0.9996 -2.652731e-02 30.874 100.3937)" class="st3" width="3.2" height="5.5"/>
	<rect x="80.8" y="39.6" transform="matrix(-0.466 -0.8848 0.8848 -0.466 83.406 134.9739)" class="st0" width="3.2" height="5.5"/>
	<rect x="89.4" y="0.4" transform="matrix(0.7484 0.6633 -0.6633 0.7484 24.9863 -59.6131)" class="st2" width="3.2" height="5.5"/>
	
		<rect x="95.1" y="31.6" transform="matrix(-0.9175 -0.3977 0.3977 -0.9175 171.7719 104.3824)" class="st3" width="3.2" height="5.5"/>
	
		<rect x="79.8" y="11.8" transform="matrix(-0.809 -0.5878 0.5878 -0.809 138.8229 74.2318)" class="st0" width="3.2" height="5.5"/>
	
		<rect x="84.9" y="25.2" transform="matrix(-0.6097 -0.7926 0.7926 -0.6097 117.1831 113.5047)" class="st2" width="3.2" height="5.5"/>
	
		<rect x="79" y="64.3" transform="matrix(-1 -6.310368e-03 6.310368e-03 -1 160.8829 134.6732)" class="st0" width="3.2" height="5.5"/>
	<polyline class="st3" points="95.6,69.3 92.4,68.9 93.2,63.4 96.4,63.9 	"/>
	<rect x="69.5" y="51.1" transform="matrix(0.5347 0.845 -0.845 0.5347 78.614 -35.077)" class="st2" width="3.2" height="5.5"/>
	<polygon points="28.7,27.1 25.9,35.8 37.2,39.5 36.8,40.5 27.7,37.5 25.3,46.2 36.9,50.1 36.8,51 28.1,48.1 25.5,55.5 37.1,60 
		36.8,61.1 28.2,57.5 26.2,64.9 55.5,75.3 65.4,71.6 80.9,74 89.9,44.9 65.4,38.3 61.7,29.3 62.3,12 55.5,9.7 50.3,22.4 50.2,34.1 	
		"/>
</g>
</svg>
