<?xml version="1.0" encoding="utf-8"?>
<!-- Generator: Adobe Illustrator 22.0.1, SVG Export Plug-In . SVG Version: 6.00 Build 0)  -->
<svg version="1.1" id="Calque_1" xmlns="http://www.w3.org/2000/svg" xmlns:xlink="http://www.w3.org/1999/xlink" x="0px" y="0px"
	 viewBox="0 0 109.1 62.1" style="enable-background:new 0 0 109.1 62.1;" xml:space="preserve">
<style type="text/css">
	.st0{fill:#1D1D1B;}
</style>
<g>
	<circle class="st0" cx="91.8" cy="11.9" r="11.9"/>
	<circle class="st0" cx="21.2" cy="14.2" r="14.2"/>
	<path class="st0" d="M84.9,33.8l-9.3-5.9c-2.7,7-9.4,11.9-17.3,11.9c-7.3,0-13.7-4.2-16.7-10.4l-12.1,6.9l11.8,25.9l36.2-4.9
		L84.9,33.8z"/>
	<circle class="st0" cx="58.2" cy="21.2" r="15.7"/>
	<path class="st0" d="M103.3,20c-3.2,4.6-9.1,7-14.9,5.6C83,24.3,79.1,20,78,14.9l-2.1,0.6c0.6,1.8,0.9,3.7,0.9,5.7
		c0,1.7-0.2,3.3-0.6,4.9l12,5.8l-3.5,8.7l14.8,1.3l9.7-15.9L103.3,20z"/>
	<path class="st0" d="M26.4,36.3l14-9.8l0,0c-0.5-1.7-0.8-3.5-0.8-5.3c0-1.7,0.2-3.3,0.6-4.9l-2.4-0.7c-0.6,6.7-5.2,12.7-12,14.7
		c-6.4,1.9-13-0.2-17.1-4.8l-8.7,9L16.8,54l16.5-7.3L26.4,36.3z"/>
</g>
</svg>
